<svg xmlns="http://www.w3.org/2000/svg" version="1.1" xmlns:xlink="http://www.w3.org/1999/xlink" xmlns:svgjs="http://svgjs.dev/svgjs" width="128" height="128" viewBox="0 0 128 128"><g transform="matrix(0.8046875,0,0,0.8046875,12.423186256499989,9.958606291118414)"><svg viewBox="0 0 90 95" data-background-color="#20234d" preserveAspectRatio="xMidYMid meet" height="135" width="128" xmlns="http://www.w3.org/2000/svg" xmlns:xlink="http://www.w3.org/1999/xlink"><g id="tight-bounds" transform="matrix(1,0,0,1,0.06711880500000689,-0.24049999999999727)"><svg viewBox="0 0 89.86576239 95.481" height="95.481" width="89.86576239"><g><svg viewBox="0 0 89.86576239 95.481" height="95.481" width="89.86576239"><g><svg viewBox="0 0 89.86576239 95.481" height="95.481" width="89.86576239"><g id="textblocktransform"><svg viewBox="0 0 89.86576239 95.481" height="95.481" width="89.86576239" id="textblock"><g><svg viewBox="0 0 89.86576239 95.481" height="95.481" width="89.86576239"><g><svg viewBox="0 0 89.86576239 95.481" height="95.481" width="89.86576239"><g><svg version="1.1" xmlns="http://www.w3.org/2000/svg" xmlns:xlink="http://www.w3.org/1999/xlink" x="0" y="0" viewBox="0 0 94.119 100" enable-background="new 0 0 94.119 100" xml:space="preserve" width="89.86576239" height="95.481" class="icon-icon-0" data-fill-palette-color="accent" id="icon-0"><polygon points="82.354,0 69.118,3.861 75.552,21.324 88.235,17.647 " fill="#bf1fd0" data-fill-palette-color="accent"></polygon><polygon points="61.031,6.067 43.75,11.029 44.118,11.765 47.427,20.772 50.368,28.493 67.648,23.53 " fill="#bf1fd0" data-fill-palette-color="accent"></polygon><polygon points="35.846,13.235 20.589,17.647 27.207,35.111 42.464,30.699 38.604,20.772 " fill="#bf1fd0" data-fill-palette-color="accent"></polygon><polygon points="12.684,19.853 0,23.53 5.883,41.177 19.118,37.317 " fill="#bf1fd0" data-fill-palette-color="accent"></polygon><path d="M5.883 41.177v52.941c0 3.259 2.623 5.882 5.882 5.882h76.47c3.259 0 5.884-2.623 5.884-5.882V41.177H5.883zM82.354 70.588H17.647V52.942h64.706V70.588z" fill="#bf1fd0" data-fill-palette-color="accent"></path></svg></g></svg></g></svg></g></svg></g></svg></g></svg></g><defs></defs></svg><rect width="89.86576239" height="95.481" fill="none" stroke="none" visibility="hidden"></rect></g></svg></g></svg>