<svg xmlns="http://www.w3.org/2000/svg" version="1.1" xmlns:xlink="http://www.w3.org/1999/xlink" xmlns:svgjs="http://svgjs.dev/svgjs" width="1500" height="178" viewBox="0 0 1500 178"><g transform="matrix(1,0,0,1,-0.9090909090909918,-0.5659378898065199)"><svg viewBox="0 0 396 47" data-background-color="#20234d" preserveAspectRatio="xMidYMid meet" height="178" width="1500" xmlns="http://www.w3.org/2000/svg" xmlns:xlink="http://www.w3.org/1999/xlink"><g id="tight-bounds" transform="matrix(1,0,0,1,0.2400000000000091,0.14943303831969956)"><svg viewBox="0 0 395.52 46.70113392336058" height="46.70113392336058" width="395.52"><g><svg viewBox="0 0 457.1748317709836 53.981045319899245" height="46.70113392336058" width="395.52"><g transform="matrix(1,0,0,1,61.65483177098358,4.0139987304785905)"><svg viewBox="0 0 395.52000000000004 45.953047858942064" height="45.953047858942064" width="395.52000000000004"><g id="textblocktransform"><svg viewBox="0 0 395.52000000000004 45.953047858942064" height="45.953047858942064" width="395.52000000000004" id="textblock"><g><svg viewBox="0 0 395.52000000000004 45.953047858942064" height="45.953047858942064" width="395.52000000000004"><g transform="matrix(1,0,0,1,0,0)"><svg width="395.52000000000004" viewBox="2.86 -36.04 310.13 36.04" height="45.953047858942064" data-palette-color="#e99e15"><path d="M22.09 0L2.88-32.4 14.36-32.4 23.05-17.99 29.88-29.71 29.88-13.4 22.09 0ZM42.26 0L31.47 0 31.47-32.4 42.26-32.4 42.26 0ZM12.94 0L2.86 0 2.86-29.39 12.94-12.48 12.94 0ZM76.56-19.46L76.56-6.47 70.09 0 62.86 0 62.86-6.05 65.55-6.05 65.55-19.46 62.86-19.46 62.86-25.93 70.09-25.93 76.56-19.46ZM58.35-19.46L58.35-6.05 61.15-6.05 61.15 0 53.9 0 47.43-6.47 47.43-19.46 53.9-25.93 61.15-25.93 61.15-19.46 58.35-19.46ZM88.23 0L78.54-25.93 89.25-25.93 98.48 0 88.23 0ZM108.32-25.93L99.58-1.44 94.75-15.16 98.24-25.93 108.32-25.93ZM110.54 0L110.54-25.93 121.35-25.93 121.35 0 110.54 0ZM110.54-29.15L110.54-36.04 121.35-36.04 121.35-29.15 110.54-29.15ZM137.03-25.93L137.03 0 132.7 0 126.24-6.47 126.24-19.46 132.7-25.93 137.03-25.93ZM154.36-10.4L138.74-10.4 138.74-14.92 144.42-14.92 144.42-19.46 138.74-19.46 138.74-25.93 147.89-25.93 154.36-19.46 154.36-10.4ZM150.01 0L138.74 0 138.74-6.05 153.24-6.05 153.24-3.25 150.01 0ZM166.78-32.4L177.99 0 167.49 0 155.77-32.4 166.78-32.4ZM174.45-15.23L179.68-32.4 190.51-32.4 179.31-0.98 174.45-15.23ZM199.81-25.93L199.81 0 195.49 0 189.02-6.47 189.02-19.46 195.49-25.93 199.81-25.93ZM217.15-10.4L201.52-10.4 201.52-14.92 207.21-14.92 207.21-19.46 201.52-19.46 201.52-25.93 210.68-25.93 217.15-19.46 217.15-10.4ZM212.8 0L201.52 0 201.52-6.05 216.03-6.05 216.03-3.25 212.8 0ZM238.85-13.16L238.85-19.46 234.26-19.46 234.26-22.29 237.87-25.93 244.42-25.93 249.67-19.87 249.67-13.16 238.85-13.16ZM232.53 0L221.74 0 221.74-25.93 232.53-25.93 232.53 0ZM252.79-20.12L258.62-25.93 262.94-25.93 262.94-16.77 275.25-16.77 280.86-11.11 280.86-6.05 274.83 0 270.07 0 270.07-9.79 258.4-9.79 252.79-15.19 252.79-20.12ZM263.58-7.42L263.58-4.76 268.36-4.76 268.36 0 257.26-0.02 252.76-5.35 252.76-7.42 263.58-7.42ZM270.07-19.14L270.07-21.17 264.65-21.17 264.65-25.93 276.13-25.93 279.98-22.07 279.98-19.14 270.07-19.14ZM295.66-25.93L295.66 0 291.33 0 284.87-6.47 284.87-19.46 291.33-25.93 295.66-25.93ZM312.99-10.4L297.37-10.4 297.37-14.92 303.05-14.92 303.05-19.46 297.37-19.46 297.37-25.93 306.52-25.93 312.99-19.46 312.99-10.4ZM308.64 0L297.37 0 297.37-6.05 311.87-6.05 311.87-3.25 308.64 0Z" opacity="1" transform="matrix(1,0,0,1,0,0)" fill="#e99e15" class="wordmark-text-0" data-fill-palette-color="primary" id="text-0"></path></svg></g></svg></g></svg></g></svg></g><g><svg viewBox="0 0 50.80642004463597 53.981045319899245" height="53.981045319899245" width="50.80642004463597"><g><svg version="1.1" xmlns="http://www.w3.org/2000/svg" xmlns:xlink="http://www.w3.org/1999/xlink" x="0" y="0" viewBox="0 0 94.119 100" enable-background="new 0 0 94.119 100" xml:space="preserve" width="50.80642004463597" height="53.981045319899245" class="icon-icon-0" data-fill-palette-color="accent" id="icon-0"><polygon points="82.354,0 69.118,3.861 75.552,21.324 88.235,17.647 " fill="#bf1fd0" data-fill-palette-color="accent"></polygon><polygon points="61.031,6.067 43.75,11.029 44.118,11.765 47.427,20.772 50.368,28.493 67.648,23.53 " fill="#bf1fd0" data-fill-palette-color="accent"></polygon><polygon points="35.846,13.235 20.589,17.647 27.207,35.111 42.464,30.699 38.604,20.772 " fill="#bf1fd0" data-fill-palette-color="accent"></polygon><polygon points="12.684,19.853 0,23.53 5.883,41.177 19.118,37.317 " fill="#bf1fd0" data-fill-palette-color="accent"></polygon><path d="M5.883 41.177v52.941c0 3.259 2.623 5.882 5.882 5.882h76.47c3.259 0 5.884-2.623 5.884-5.882V41.177H5.883zM82.354 70.588H17.647V52.942h64.706V70.588z" fill="#bf1fd0" data-fill-palette-color="accent"></path></svg></g></svg></g></svg></g><defs></defs></svg><rect width="395.52" height="46.70113392336058" fill="none" stroke="none" visibility="hidden"></rect></g></svg></g></svg>